<svg width="96" height="68" viewBox="0 0 96 68" fill="none" xmlns="http://www.w3.org/2000/svg">
<g clip-path="url(#clip0_51_172)">
<path d="M39.2515 19.6259H53.7664L63.3069 10.3581H87.1577C91.1096 10.3581 94.3129 13.4701 94.3129 17.3089V59.0137C94.3129 62.8527 91.1096 65.9645 87.1577 65.9645H25.1455C21.1937 65.9645 17.9902 62.8527 17.9902 59.0137V42.1332" stroke="#05B2DC" stroke-width="6"/>
<path d="M17.9903 28.8935C23.1088 28.8935 27.2581 24.7442 27.2581 19.6258C27.2581 14.5074 23.1088 10.3581 17.9903 10.3581C12.8719 10.3581 8.7226 14.5074 8.7226 19.6258C8.7226 24.7442 12.8719 28.8935 17.9903 28.8935Z" stroke="#FFFFF2" stroke-width="6"/>
<path d="M17.9904 27.8033V38.7065" stroke="#FFFFF2" stroke-width="6"/>
<path d="M26.1678 19.6259H35.9807" stroke="#FFFFF2" stroke-width="6"/>
<path d="M17.9903 11.4457L18.0084 0.54245" stroke="#FFFFF2" stroke-width="6"/>
<path d="M10.3554 19.6421L0.54248 19.6258" stroke="#FFFFF2" stroke-width="6"/>
<path d="M17.9903 22.3516C19.4958 22.3516 20.7161 21.1312 20.7161 19.6258C20.7161 18.1204 19.4958 16.9 17.9903 16.9C16.4849 16.9 15.2645 18.1204 15.2645 19.6258C15.2645 21.1312 16.4849 22.3516 17.9903 22.3516Z" fill="#FFFFF2"/>
</g>
<defs>
<clipPath id="clip0_51_172">
<rect width="95.9484" height="67.6" fill="white"/>
</clipPath>
</defs>
</svg>
